# xmcd
#
# Track frame offsets:
#	150
#	3315
#	7767
#	9020
#	25765
#	28012
#	40900
#	41737
#	49305
#	57132
#	57832
#	74447
#	87035
#	105347
#	107750
#	123237
#	139152
#	141042
#	157567
#	160690
#	179245
#	180307
#
# Disc length: 3011 seconds
#
# Revision: 1
# Processed by: cddbd v1.4PL0 Copyright (c) Steve Scherf et al.
# Submitted via: audiograbber 1.81.03
#
DISCID=070bc116
DTITLE=Willy Freeze and the new crazy hats - Still Movin´
DYEAR=1997
DGENRE=Country
TTITLE0=No Plane Crash
TTITLE1=Techno
TTITLE2=Come on Willy
TTITLE3=Pink Lemonade (fast)
TTITLE4=My way on the Highway
TTITLE5=Caddy Rave
TTITLE6=I need my boy
TTITLE7=My Guitar
TTITLE8=Highway 1
TTITLE9=Do you have any mony
TTITLE10=Devil on my side
TTITLE11=Highway 2
TTITLE12=Slippin´ away
TTITLE13=Explosion
TTITLE14=Trailer Song
TTITLE15=Salewski
TTITLE16=Ed´s Slide
TTITLE17=Lener´s land
TTITLE18=What really happend
TTITLE19=Pink Lemonade (slow)
TTITLE20=Thats´s Buisines sen!
TTITLE21=Abspann
EXTD=
EXTT0=
EXTT1=
EXTT2=
EXTT3=
EXTT4=
EXTT5=
EXTT6=
EXTT7=
EXTT8=
EXTT9=
EXTT10=
EXTT11=
EXTT12=
EXTT13=
EXTT14=
EXTT15=
EXTT16=
EXTT17=
EXTT18=
EXTT19=
EXTT20=
EXTT21=
PLAYORDER=
